<svg height="512" viewBox="0 0 58 58" width="512" xmlns="http://www.w3.org/2000/svg"><g id="Page-1" fill="none" fill-rule="evenodd"><g id="005---Sleepy-Bear" fill-rule="nonzero"><path id="Shape" d="m54.44 16.62c-1.44-7.13-5.35-16.62-22.44-16.62-16.73 0-20.23 8.47-20.9 13.08h-.48c-2-.18-4.24.74-7 3.53-5.21 5.2-4 8.72-1.06 11.67 1.68726374 1.5959765 3.75155027 2.738215 6 3.32-1.60206751 2.9986765-2.47885722 6.3311624-2.56 9.73 0 11.05 10.3 16.67 23 16.67 12.3 0 22.34-5.27 23-15.63 0-.34 0-.69 0-1-.0564232-3.399961-.9092465-6.7393295-2.49-9.75 2.2484497-.581785 4.3127363-1.7240235 6-3.32.21-.21.41-.42.6-.64 2.44-2.85 3.14-6.23-1.67-11.04z" fill="#a56a43"/><path id="Shape" d="m45.53 24.51c-1.6154402-1.7201903-1.6154402-4.3998097 0-6.12.5544169-.7232978 1.3550561-1.217915 2.25-1.39.42 0 1.62.24 3.8 2.42 3.54 3.53 2.55 4.52 1.06 6v.05c-.8852962.8304739-2.0685503 1.2680738-3.2811733 1.2134681-1.2126229-.0546057-2.3517565-.5967851-3.1588267-1.5034681z" fill="#ff5364"/><path id="Shape" d="m11.85 25.19c-.8070702.906683-1.94620375 1.4488624-3.15882675 1.5034681-1.21262299.0546057-2.39587703-.3829942-3.28117325-1.2134681v-.05c-1.49-1.49-2.48-2.48 1.06-6 2.13-2.19 3.33-2.43 3.75-2.43.8760269.1733734 1.6604529.656097 2.21 1.36 1.6154402 1.7201903 1.6154402 4.3998097 0 6.12z" fill="#ff5364"/><path id="Shape" d="m43.54 14.84c-.2785097.2159005-.5455408.4462148-.8.69-1.7291742 1.6554687-2.9236951 3.790283-3.43 6.13-3.3079067-1.1726372-6.8011987-1.7350877-10.31-1.66-3.5088013-.0750877-7.0020933.4873628-10.31 1.66-.5063049-2.339717-1.7008258-4.4745313-3.43-6.13-.2544592-.2437852-.5214903-.4740995-.8-.69 1.95-1.18 6.18-2.84 14.54-2.84s12.59 1.66 14.54 2.84z" fill="#f3d55b"/><path id="Shape" d="m54.44 16.62c-4.75-4.76-8-4.08-10.87-1.75-1.98-1.21-6.21-2.87-14.57-2.87s-12.59 1.66-14.54 2.84c-.9594647-.8475631-2.1194239-1.4361477-3.37-1.71l-.47-.07h.48c.67-4.59 4.17-13.06 20.9-13.06 17.09 0 21 9.49 22.44 16.62z" fill="#3b97d3"/><path id="Shape" d="m58 46c0 4.32-3.73 1.18-6-3.63 0-.34 0-.69 0-1-.0564232-3.399961-.9092465-6.7393295-2.49-9.75 2.2484497-.581785 4.3127363-1.7240235 6-3.32.21-.21.41-.42.6-.64.89 6.82 1.89 14.82 1.89 18.34z" fill="#3b97d3"/><path id="Shape" d="m48.45 28.72c-.5522847.071797-1.058203-.3177153-1.13-.87s.3177153-1.058203.87-1.13c1.395668-.3475753 2.6838387-1.0345997 3.75-2 1.32-1.32 1.77-1.77-1.06-4.6-2.1-2.12-3.06-2.12-3.1-2.12s-.45 0-1.5 1.06c-.8990728.9677585-1.5599264 2.1319566-1.93 3.4-.1656854.5274319-.7275681.8206854-1.255.655s-.8206854-.7275681-.655-1.255c.4660635-1.5755855 1.2988084-3.0183246 2.43-4.21.7149394-.911667 1.7605984-1.5045664 2.91-1.65.82 0 2.27.47 4.51 2.71 3.94 3.94 2.92 5.56 1.06 7.42-1.306473 1.2250262-2.897819 2.1049065-4.63 2.56-.0886297.0198583-.1791729.0299186-.27.03z" fill="#805333"/><path id="Shape" d="m9.55 28.72c-.08635626.0103734-.17364374.0103734-.26 0-1.7354281-.454348-3.33019107-1.3342172-4.64-2.56-.95110356-.7114451-1.55178743-1.7963166-1.65-2.98 0-1.25.82-2.59 2.71-4.47 2.29-2.24 3.69-2.71 4.51-2.71 1.1494016.1454336 2.1950606.738333 2.91 1.65 1.1311916 1.1916754 1.9639365 2.6344145 2.43 4.21.1656854.5274319-.1275681 1.0893145-.655 1.255-.5274319.1656854-1.0893146-.1275681-1.255-.655-.3700736-1.2680434-1.0309272-2.4322415-1.93-3.4-1.05-1.06-1.49-1.06-1.5-1.06s-1 0-3.1 2.12c-1.74 1.75-2.12 2.64-2.12 3.08s.38.84 1.06 1.52c1.06616126.9654003 2.35433204 1.6524247 3.75 2 .5282319.1461291.8404156.6902208.7 1.22-.1015321.450462-.498293.7728302-.96.78z" fill="#805333"/><path id="Shape" d="m38 48c0 4.42-4 6-9 6s-9-1.58-9-6 3.78-9.65 8.54-10c-2 .17-3.54 1.44-3.54 3s1.79 3 4 3 4-1.34 4-3c0-1.44-1.36-2.65-3.16-2.94 4.58.58 8.16 5.78 8.16 9.94z" fill="#cbb292"/><path id="Shape" d="m33 41c0 1.66-1.79 3-4 3s-4-1.34-4-3 1.55-2.81 3.54-3h.46.46.38c1.8.35 3.16 1.56 3.16 3z" fill="#5f5346"/><path id="Shape" d="m19 38c-3.16 0-4-2-4-3 0-.5522847.4477153-1 1-1s1 .4477153 1 1c0 .14.16 1 2 1s2-.86 2-1c0-.5522847.4477153-1 1-1s1 .4477153 1 1c0 1-.84 3-4 3z" fill="#805333"/><path id="Shape" d="m39 38c-3.16 0-4-2-4-3 0-.5522847.4477153-1 1-1s1 .4477153 1 1c0 .14.16 1 2 1s2-.86 2-1c0-.5522847.4477153-1 1-1s1 .4477153 1 1c0 1-.84 3-4 3z" fill="#805333"/><g fill="#603e26"><path id="Shape" d="m15 31c-.265803.0015368-.5212812-.1028135-.71-.29-.1893127-.1877666-.2957983-.4433625-.2957983-.71s.1064856-.5222334.2957983-.71c1.2286478-1.3251218 2.9089866-2.1421019 4.71-2.29.5522847 0 1 .4477153 1 1s-.4477153 1-1 1c-1.2717146.1485318-2.4453167.756671-3.3 1.71-.1862606.1847442-.4376601.2888954-.7.29z"/><path id="Shape" d="m43 31c-.265803.0015368-.5212812-.1028135-.71-.29-.8521809-.9511827-2.0218524-1.5591275-3.29-1.71-.5522847 0-1-.4477153-1-1s.4477153-1 1-1c1.8010134.1478981 3.4813522.9648782 4.71 2.29.1893127.1877666.2957983.4433625.2957983.71s-.1064856.5222334-.2957983.71c-.1887188.1871865-.444197.2915368-.71.29z"/></g></g></g></svg>